# xmcd
#
# Track frame offsets: 
#        150
#        18539
#        34117
#        51847
#        66765
#        83792
#        100165
#        115246
#        117949
#        131956
#        149053
#
# Disc length: 2169 seconds
#
# Revision: 0
# Processed by: cddbd v1.5.2PL0 Copyright (c) Steve Scherf et al.
# Submitted via: ExactAudioCopy v1.0b1
#
DISCID=a008770b
DTITLE=blacktopGYPSY - BTG
DYEAR=2005
DGENRE=Country
TTITLE0=Carolina
TTITLE1=Ain't Your Mama
TTITLE2=Crying
TTITLE3=Give You Me
TTITLE4=Ring
TTITLE5=Your Turn to Cry
TTITLE6=Voices
TTITLE7=Intro to This Time
TTITLE8=This Time
TTITLE9=Better Days
TTITLE10=If I Were You
EXTD=
EXTT0=
EXTT1=
EXTT2=
EXTT3=
EXTT4=
EXTT5=
EXTT6=
EXTT7=
EXTT8=
EXTT9=
EXTT10=
PLAYORDER=
